<mxfile host="app.diagrams.net" agent="Mozilla/5.0 (Windows NT 10.0; Win64; x64) AppleWebKit/537.36 (KHTML, like Gecko) Chrome/139.0.0.0 Safari/537.36" version="28.2.0" pages="2">
  <diagram name="Page-1" id="d5Un_djH0mLvjflrznP6">
    <mxGraphModel dx="1403" dy="902" grid="1" gridSize="10" guides="1" tooltips="1" connect="1" arrows="1" fold="1" page="1" pageScale="1" pageWidth="850" pageHeight="1100" math="0" shadow="0">
      <root>
        <mxCell id="0" />
        <mxCell id="1" parent="0" />
        <mxCell id="KxWpBwP_uJj4FkY4dG1--1" value="&lt;div&gt;&lt;b&gt;Threat (Ancaman)&lt;/b&gt;&lt;/div&gt;&lt;div&gt;&lt;br&gt;&lt;/div&gt;&lt;div style=&quot;text-align: left;&quot;&gt;&lt;b&gt;Actor:&lt;/b&gt; LockBit 3.0 Ransomware Group&lt;br&gt;&lt;b&gt;Capability:&lt;/b&gt; Ransomware-as-a-Service (RaaS)&lt;br&gt;&lt;b&gt;Intent:&lt;/b&gt; Financial extortion against large corporations&lt;/div&gt;" style="rounded=1;whiteSpace=wrap;html=1;fillColor=#f9f9f9;strokeColor=#333333;strokeWidth=2;align=center;verticalAlign=top;spacingTop=10;spacingLeft=10;" parent="1" vertex="1">
          <mxGeometry x="245" y="40" width="360" height="160" as="geometry" />
        </mxCell>
        <mxCell id="KxWpBwP_uJj4FkY4dG1--2" value="&lt;div&gt;&lt;b&gt;Attack (Serangan)&lt;/b&gt;&lt;/div&gt;&lt;div&gt;&lt;br&gt;&lt;/div&gt;&lt;div style=&quot;text-align: left;&quot;&gt;&lt;b&gt;Action:&lt;/b&gt; Infiltration of BSI&#39;s network&lt;br&gt;&lt;b&gt;Method:&lt;/b&gt; Data exfiltration (1.5 TB) followed by system-wide encryption&lt;br&gt;&lt;b&gt;Exploits:&lt;/b&gt; Stolen credentials, disabled antivirus, abuse of admin tools&lt;/div&gt;" style="rounded=1;whiteSpace=wrap;html=1;fillColor=#f9f9f9;strokeColor=#333333;strokeWidth=2;align=center;verticalAlign=top;spacingTop=10;spacingLeft=10;" parent="1" vertex="1">
          <mxGeometry x="245" y="280" width="360" height="160" as="geometry" />
        </mxCell>
        <mxCell id="KxWpBwP_uJj4FkY4dG1--3" value="&lt;div&gt;&lt;b&gt;Incident (Insiden)&lt;/b&gt;&lt;/div&gt;&lt;div&gt;&lt;br&gt;&lt;/div&gt;&lt;div style=&quot;text-align: left;&quot;&gt;&lt;b&gt;Outcome 1 (Confidentiality):&lt;/b&gt; Data breach of 15 million customers&lt;br&gt;&lt;b&gt;Outcome 2 (Availability):&lt;/b&gt; Prolonged paralysis of mobile banking &amp;amp; ATM services&lt;br&gt;&lt;b&gt;Outcome 3 (Financial):&lt;/b&gt; $20 million ransom demand and reputational damage&lt;/div&gt;" style="rounded=1;whiteSpace=wrap;html=1;fillColor=#f9f9f9;strokeColor=#333333;strokeWidth=2;align=center;verticalAlign=top;spacingTop=10;spacingLeft=10;" parent="1" vertex="1">
          <mxGeometry x="245" y="520" width="360" height="160" as="geometry" />
        </mxCell>
        <mxCell id="KxWpBwP_uJj4FkY4dG1--4" value="&lt;b&gt;leads to an&lt;/b&gt;" style="endArrow=classic;html=1;rounded=0;edgeStyle=entityRelationEdgeStyle;" parent="1" source="KxWpBwP_uJj4FkY4dG1--1" target="KxWpBwP_uJj4FkY4dG1--2" edge="1">
          <mxGeometry width="50" height="50" relative="1" as="geometry">
            <mxPoint x="400" y="220" as="sourcePoint" />
            <mxPoint x="450" y="170" as="targetPoint" />
          </mxGeometry>
        </mxCell>
        <mxCell id="KxWpBwP_uJj4FkY4dG1--5" value="&lt;b&gt;if successful, results in an&lt;/b&gt;" style="endArrow=classic;html=1;rounded=0;edgeStyle=entityRelationEdgeStyle;" parent="1" source="KxWpBwP_uJj4FkY4dG1--2" target="KxWpBwP_uJj4FkY4dG1--3" edge="1">
          <mxGeometry width="50" height="50" relative="1" as="geometry">
            <mxPoint x="400" y="460" as="sourcePoint" />
            <mxPoint x="450" y="410" as="targetPoint" />
          </mxGeometry>
        </mxCell>
      </root>
    </mxGraphModel>
  </diagram>
  <diagram id="HKiZkePw36cx58SQwhAk" name="Page-2">
    <mxGraphModel dx="1754" dy="1128" grid="1" gridSize="10" guides="1" tooltips="1" connect="1" arrows="1" fold="1" page="1" pageScale="1" pageWidth="850" pageHeight="1100" math="0" shadow="0">
      <root>
        <mxCell id="0" />
        <mxCell id="1" parent="0" />
        <mxCell id="n3H2jE0Vd8v9a2Zf4p-1" value="Sender" style="swimlane;whiteSpace=wrap;html=1;startSize=23;" parent="1" vertex="1">
          <mxGeometry x="30" y="40" width="370" height="830" as="geometry" />
        </mxCell>
        <mxCell id="n3H2jE0Vd8v9a2Zf4p-2" value="Recipient" style="swimlane;whiteSpace=wrap;html=1;startSize=23;" parent="1" vertex="1">
          <mxGeometry x="450" y="40" width="370" height="830" as="geometry" />
        </mxCell>
        <mxCell id="n3H2jE0Vd8v9a2Zf4p-27" value="Message Read" style="ellipse;whiteSpace=wrap;html=1;fillColor=#6a00ff;fontColor=#ffffff;strokeColor=#37007f;" parent="n3H2jE0Vd8v9a2Zf4p-2" vertex="1">
          <mxGeometry x="130" y="570" width="100" height="50" as="geometry" />
        </mxCell>
        <mxCell id="n3H2jE0Vd8v9a2Zf4p-35" value="Server" style="rounded=1;whiteSpace=wrap;html=1;fillColor=#e6e6e6;strokeColor=#cccccc;" parent="n3H2jE0Vd8v9a2Zf4p-2" vertex="1">
          <mxGeometry x="20" y="30" width="100" height="50" as="geometry" />
        </mxCell>
        <mxCell id="kQmVpDFHf5aq79dRSGj_-1" style="edgeStyle=orthogonalEdgeStyle;rounded=0;orthogonalLoop=1;jettySize=auto;html=1;exitX=0.5;exitY=1;exitDx=0;exitDy=0;entryX=0.5;entryY=0;entryDx=0;entryDy=0;" edge="1" parent="1" source="n3H2jE0Vd8v9a2Zf4p-3" target="n3H2jE0Vd8v9a2Zf4p-4">
          <mxGeometry relative="1" as="geometry" />
        </mxCell>
        <mxCell id="n3H2jE0Vd8v9a2Zf4p-3" value="Start" style="ellipse;whiteSpace=wrap;html=1;fillColor=#6a00ff;fontColor=#ffffff;strokeColor=#37007f;" parent="1" vertex="1">
          <mxGeometry x="130" y="70" width="160" height="50" as="geometry" />
        </mxCell>
        <mxCell id="kQmVpDFHf5aq79dRSGj_-2" style="edgeStyle=orthogonalEdgeStyle;rounded=0;orthogonalLoop=1;jettySize=auto;html=1;exitX=0.5;exitY=1;exitDx=0;exitDy=0;entryX=0.5;entryY=0;entryDx=0;entryDy=0;" edge="1" parent="1" source="n3H2jE0Vd8v9a2Zf4p-4" target="n3H2jE0Vd8v9a2Zf4p-5">
          <mxGeometry relative="1" as="geometry" />
        </mxCell>
        <mxCell id="n3H2jE0Vd8v9a2Zf4p-4" value="Recipient&#39;s Public Key&lt;br&gt;(&lt;b&gt;Receiver_Pub_Key&lt;/b&gt;)" style="rounded=1;whiteSpace=wrap;html=1;fillColor=#fff2cc;strokeColor=#d6b656;" parent="1" vertex="1">
          <mxGeometry x="120" y="150" width="180" height="40" as="geometry" />
        </mxCell>
        <mxCell id="n3H2jE0Vd8v9a2Zf4p-5" value="Original Message&lt;br&gt;(&lt;b&gt;Plaintext&lt;/b&gt;)" style="rounded=1;whiteSpace=wrap;html=1;fillColor=#dae8fc;strokeColor=#6c8ebf;" parent="1" vertex="1">
          <mxGeometry x="120" y="210" width="180" height="40" as="geometry" />
        </mxCell>
        <mxCell id="n3H2jE0Vd8v9a2Zf4p-6" value="Generate Session Key (K_AES)" style="rounded=1;whiteSpace=wrap;html=1;fillColor=#d5e8d4;strokeColor=#82b366;" parent="1" vertex="1">
          <mxGeometry x="100" y="290" width="220" height="40" as="geometry" />
        </mxCell>
        <mxCell id="n3H2jE0Vd8v9a2Zf4p-7" value="AES Encryption" style="shape=cylinder;whiteSpace=wrap;html=1;aspect=fixed;fillColor=#e1d5e7;strokeColor=#9673a6;" parent="1" vertex="1">
          <mxGeometry x="160" y="370" width="100" height="100" as="geometry" />
        </mxCell>
        <mxCell id="kQmVpDFHf5aq79dRSGj_-4" style="edgeStyle=orthogonalEdgeStyle;rounded=0;orthogonalLoop=1;jettySize=auto;html=1;exitX=0.5;exitY=1;exitDx=0;exitDy=0;entryX=0.5;entryY=0;entryDx=0;entryDy=0;" edge="1" parent="1" source="n3H2jE0Vd8v9a2Zf4p-8" target="n3H2jE0Vd8v9a2Zf4p-16">
          <mxGeometry relative="1" as="geometry" />
        </mxCell>
        <mxCell id="n3H2jE0Vd8v9a2Zf4p-8" value="RSA Encryption" style="shape=cylinder;whiteSpace=wrap;html=1;aspect=fixed;fillColor=#e1d5e7;strokeColor=#9673a6;" parent="1" vertex="1">
          <mxGeometry x="160" y="570" width="100" height="100" as="geometry" />
        </mxCell>
        <mxCell id="n3H2jE0Vd8v9a2Zf4p-10" value="" style="endArrow=classic;html=1;rounded=0;" parent="1" source="n3H2jE0Vd8v9a2Zf4p-5" target="n3H2jE0Vd8v9a2Zf4p-6" edge="1">
          <mxGeometry width="50" height="50" relative="1" as="geometry">
            <mxPoint x="210" y="260" as="sourcePoint" />
            <mxPoint x="210" y="290" as="targetPoint" />
          </mxGeometry>
        </mxCell>
        <mxCell id="n3H2jE0Vd8v9a2Zf4p-11" value="" style="endArrow=classic;html=1;rounded=0;" parent="1" source="n3H2jE0Vd8v9a2Zf4p-6" target="n3H2jE0Vd8v9a2Zf4p-7" edge="1">
          <mxGeometry width="50" height="50" relative="1" as="geometry">
            <mxPoint x="210" y="340" as="sourcePoint" />
            <mxPoint x="210" y="370" as="targetPoint" />
          </mxGeometry>
        </mxCell>
        <mxCell id="kQmVpDFHf5aq79dRSGj_-3" style="edgeStyle=orthogonalEdgeStyle;rounded=0;orthogonalLoop=1;jettySize=auto;html=1;exitX=0.5;exitY=1;exitDx=0;exitDy=0;entryX=0.5;entryY=0;entryDx=0;entryDy=0;" edge="1" parent="1" source="n3H2jE0Vd8v9a2Zf4p-15" target="n3H2jE0Vd8v9a2Zf4p-8">
          <mxGeometry relative="1" as="geometry" />
        </mxCell>
        <mxCell id="n3H2jE0Vd8v9a2Zf4p-15" value="Ciphertext" style="rounded=1;whiteSpace=wrap;html=1;fillColor=#f8cecc;strokeColor=#b85450;" parent="1" vertex="1">
          <mxGeometry x="120" y="500" width="180" height="40" as="geometry" />
        </mxCell>
        <mxCell id="n3H2jE0Vd8v9a2Zf4p-16" value="Encrypted_Key" style="rounded=1;whiteSpace=wrap;html=1;fillColor=#f8cecc;strokeColor=#b85450;" parent="1" vertex="1">
          <mxGeometry x="120" y="690" width="180" height="40" as="geometry" />
        </mxCell>
        <mxCell id="n3H2jE0Vd8v9a2Zf4p-19" value="Transmit Encrypted Data" style="rhombus;whiteSpace=wrap;html=1;fillColor=#e6e6e6;strokeColor=#cccccc;" parent="1" vertex="1">
          <mxGeometry x="160" y="760" width="100" height="100" as="geometry" />
        </mxCell>
        <mxCell id="n3H2jE0Vd8v9a2Zf4p-21" value="" style="endArrow=classic;html=1;rounded=0;dashed=1;" parent="1" source="n3H2jE0Vd8v9a2Zf4p-16" target="n3H2jE0Vd8v9a2Zf4p-19" edge="1">
          <mxGeometry width="50" height="50" relative="1" as="geometry">
            <mxPoint x="210" y="740" as="sourcePoint" />
            <mxPoint x="210" y="760" as="targetPoint" />
          </mxGeometry>
        </mxCell>
        <mxCell id="kQmVpDFHf5aq79dRSGj_-8" style="edgeStyle=orthogonalEdgeStyle;rounded=0;orthogonalLoop=1;jettySize=auto;html=1;exitX=0.5;exitY=1;exitDx=0;exitDy=0;entryX=0.5;entryY=0;entryDx=0;entryDy=0;" edge="1" parent="1" source="n3H2jE0Vd8v9a2Zf4p-22" target="n3H2jE0Vd8v9a2Zf4p-24">
          <mxGeometry relative="1" as="geometry" />
        </mxCell>
        <mxCell id="n3H2jE0Vd8v9a2Zf4p-22" value="RSA Key Decryption" style="shape=cylinder;whiteSpace=wrap;html=1;aspect=fixed;fillColor=#e1d5e7;strokeColor=#9673a6;" parent="1" vertex="1">
          <mxGeometry x="580" y="160" width="100" height="100" as="geometry" />
        </mxCell>
        <mxCell id="kQmVpDFHf5aq79dRSGj_-10" style="edgeStyle=orthogonalEdgeStyle;rounded=0;orthogonalLoop=1;jettySize=auto;html=1;exitX=0.5;exitY=1;exitDx=0;exitDy=0;entryX=0.5;entryY=0;entryDx=0;entryDy=0;" edge="1" parent="1" source="n3H2jE0Vd8v9a2Zf4p-23" target="n3H2jE0Vd8v9a2Zf4p-26">
          <mxGeometry relative="1" as="geometry" />
        </mxCell>
        <mxCell id="n3H2jE0Vd8v9a2Zf4p-23" value="AES Message Decryption" style="shape=cylinder;whiteSpace=wrap;html=1;aspect=fixed;fillColor=#e1d5e7;strokeColor=#9673a6;" parent="1" vertex="1">
          <mxGeometry x="580" y="420" width="100" height="100" as="geometry" />
        </mxCell>
        <mxCell id="kQmVpDFHf5aq79dRSGj_-7" style="edgeStyle=orthogonalEdgeStyle;rounded=0;orthogonalLoop=1;jettySize=auto;html=1;exitX=0.5;exitY=1;exitDx=0;exitDy=0;entryX=0.5;entryY=0;entryDx=0;entryDy=0;" edge="1" parent="1" source="n3H2jE0Vd8v9a2Zf4p-24" target="n3H2jE0Vd8v9a2Zf4p-25">
          <mxGeometry relative="1" as="geometry" />
        </mxCell>
        <mxCell id="n3H2jE0Vd8v9a2Zf4p-24" value="Recipient&#39;s Private Key&lt;br&gt;(&lt;b&gt;Receiver_Priv_Key&lt;/b&gt;)" style="rounded=1;whiteSpace=wrap;html=1;fillColor=#fff2cc;strokeColor=#d6b656;" parent="1" vertex="1">
          <mxGeometry x="550" y="290" width="160" height="40" as="geometry" />
        </mxCell>
        <mxCell id="n3H2jE0Vd8v9a2Zf4p-25" value="Original Session Key&lt;br&gt;(&lt;b&gt;K_AES&lt;/b&gt;)" style="rounded=1;whiteSpace=wrap;html=1;fillColor=#d5e8d4;strokeColor=#82b366;" parent="1" vertex="1">
          <mxGeometry x="550" y="360" width="160" height="40" as="geometry" />
        </mxCell>
        <mxCell id="n3H2jE0Vd8v9a2Zf4p-26" value="Original Message&lt;br&gt;(&lt;b&gt;Plaintext&lt;/b&gt;)" style="rounded=1;whiteSpace=wrap;html=1;fillColor=#dae8fc;strokeColor=#6c8ebf;" parent="1" vertex="1">
          <mxGeometry x="550" y="540" width="160" height="40" as="geometry" />
        </mxCell>
        <mxCell id="n3H2jE0Vd8v9a2Zf4p-28" value="" style="endArrow=classic;html=1;rounded=0;entryDx=0;entryDy=0;" parent="1" source="n3H2jE0Vd8v9a2Zf4p-19" target="n3H2jE0Vd8v9a2Zf4p-22" edge="1">
          <mxGeometry width="50" height="50" relative="1" as="geometry">
            <mxPoint x="410" y="750" as="sourcePoint" />
            <mxPoint x="580" y="210" as="targetPoint" />
            <Array as="points">
              <mxPoint x="410" y="750" />
              <mxPoint x="410" y="210" />
              <mxPoint x="450" y="210" />
              <mxPoint x="450" y="210" />
            </Array>
          </mxGeometry>
        </mxCell>
        <mxCell id="n3H2jE0Vd8v9a2Zf4p-29" value="" style="endArrow=classic;html=1;rounded=0;entryDx=0;entryDy=0;" parent="1" source="n3H2jE0Vd8v9a2Zf4p-19" target="n3H2jE0Vd8v9a2Zf4p-23" edge="1">
          <mxGeometry width="50" height="50" relative="1" as="geometry">
            <mxPoint x="410" y="750" as="sourcePoint" />
            <mxPoint x="580" y="420" as="targetPoint" />
            <Array as="points">
              <mxPoint x="410" y="750" />
              <mxPoint x="410" y="470" />
              <mxPoint x="450" y="470" />
            </Array>
          </mxGeometry>
        </mxCell>
        <mxCell id="n3H2jE0Vd8v9a2Zf4p-33" value="" style="endArrow=classic;html=1;rounded=0;" parent="1" source="n3H2jE0Vd8v9a2Zf4p-26" target="n3H2jE0Vd8v9a2Zf4p-27" edge="1">
          <mxGeometry width="50" height="50" relative="1" as="geometry">
            <mxPoint x="630" y="580" as="sourcePoint" />
            <mxPoint x="630" y="610" as="targetPoint" />
          </mxGeometry>
        </mxCell>
        <mxCell id="kQmVpDFHf5aq79dRSGj_-9" style="edgeStyle=orthogonalEdgeStyle;rounded=0;orthogonalLoop=1;jettySize=auto;html=1;exitX=0.5;exitY=1;exitDx=0;exitDy=0;entryX=0.502;entryY=-0.026;entryDx=0;entryDy=0;entryPerimeter=0;" edge="1" parent="1" source="n3H2jE0Vd8v9a2Zf4p-25" target="n3H2jE0Vd8v9a2Zf4p-23">
          <mxGeometry relative="1" as="geometry" />
        </mxCell>
        <mxCell id="kQmVpDFHf5aq79dRSGj_-11" style="edgeStyle=orthogonalEdgeStyle;rounded=0;orthogonalLoop=1;jettySize=auto;html=1;exitX=0.5;exitY=1;exitDx=0;exitDy=0;entryX=0.5;entryY=-0.059;entryDx=0;entryDy=0;entryPerimeter=0;" edge="1" parent="1" source="n3H2jE0Vd8v9a2Zf4p-7" target="n3H2jE0Vd8v9a2Zf4p-15">
          <mxGeometry relative="1" as="geometry" />
        </mxCell>
      </root>
    </mxGraphModel>
  </diagram>
</mxfile>
